<?xml version="1.0" encoding="utf-8"?>
<!-- Generator: Adobe Illustrator 23.0.0, SVG Export Plug-In . SVG Version: 6.00 Build 0)  -->
<svg version="1.1" id="Livello_1" xmlns="http://www.w3.org/2000/svg" xmlns:xlink="http://www.w3.org/1999/xlink" x="0px" y="0px"
	 viewBox="0 0 748 374" style="enable-background:new 0 0 748 374;" xml:space="preserve">
<style type="text/css">
	.st0{fill:#FF0303;}
	.st1{fill:#FFFFFF;}
	.st2{display:none;}
	.st3{display:inline;}
	.st4{fill:#FF7110;}
	.st5{fill:#00E5D9;}
	.st6{fill:#561D00;}
</style>
<g>
	<g>
		<rect x="0.01" class="st0" width="374" height="374"/>
	</g>
	<g>
		<path class="st1" d="M270.28,186.14c-1.72-32.34-3.79-71.22-3.44-100.12h-1.03c-7.91,27.18-17.55,56.08-29.25,88.08l-40.94,112.51
			H172.9l-37.5-110.45c-11.01-32.69-20.3-62.62-26.84-90.15h-0.69c-0.69,28.9-2.41,67.78-4.47,102.53l-6.19,99.44H68.65l16.17-231.9
			h38.19l39.57,112.17c9.63,28.56,17.55,54.02,23.4,78.1h1.03c5.85-23.4,14.11-48.86,24.43-78.1l41.29-112.17h38.19l14.45,231.9
			h-29.25L270.28,186.14z"/>
	</g>
</g>
<g id="Base_1_" class="st2">
	<g class="st3">
		<rect x="374" width="374" height="374"/>
	</g>
	<g class="st3">
		<path class="st1" d="M611.37,237.97c0.08,2.41-1.69,4.34-4.5,4.34c-2.49,0-4.25-1.93-4.25-4.34c0-2.49,1.85-4.42,4.42-4.42
			C609.68,233.55,611.37,235.48,611.37,237.97z M603.5,287.75v-38.86h7.07v38.86H603.5z"/>
		<path class="st1" d="M622.29,259.4c0-4.01-0.08-7.31-0.32-10.52h6.26l0.4,6.42h0.16c1.93-3.69,6.42-7.31,12.85-7.31
			c5.38,0,13.73,3.21,13.73,16.54v23.2h-7.07v-22.4c0-6.26-2.33-11.48-8.99-11.48c-4.66,0-8.27,3.29-9.47,7.23
			c-0.32,0.88-0.48,2.09-0.48,3.29v23.36h-7.07V259.4z"/>
		<path class="st1" d="M688.37,287.75l-0.56-4.9h-0.24c-2.17,3.05-6.34,5.78-11.88,5.78c-7.87,0-11.88-5.54-11.88-11.16
			c0-9.39,8.35-14.53,23.36-14.45v-0.8c0-3.21-0.88-8.99-8.83-8.99c-3.61,0-7.39,1.12-10.12,2.89l-1.61-4.66
			c3.21-2.09,7.87-3.45,12.77-3.45c11.88,0,14.77,8.11,14.77,15.9v14.53c0,3.37,0.16,6.66,0.64,9.31H688.37z M687.33,267.91
			c-7.71-0.16-16.46,1.2-16.46,8.75c0,4.58,3.05,6.74,6.66,6.74c5.06,0,8.27-3.21,9.39-6.5c0.24-0.72,0.4-1.53,0.4-2.25V267.91z"/>
		<path class="st1" d="M705.55,261.01c0-4.58-0.08-8.51-0.32-12.12h6.18l0.24,7.63h0.32c1.77-5.22,6.02-8.51,10.76-8.51
			c0.8,0,1.36,0.08,2.01,0.24v6.66c-0.72-0.16-1.45-0.24-2.41-0.24c-4.98,0-8.51,3.77-9.47,9.07c-0.16,0.96-0.32,2.09-0.32,3.29
			v20.72h-6.99V261.01z"/>
		<path class="st1" d="M739.99,237.97c0.08,2.41-1.69,4.34-4.5,4.34c-2.49,0-4.25-1.93-4.25-4.34c0-2.49,1.85-4.42,4.42-4.42
			C738.31,233.55,739.99,235.48,739.99,237.97z M732.13,287.75v-38.86h7.07v38.86H732.13z"/>
	</g>
	<g class="st3">
		<path class="st1" d="M509,153.66c-2.86,0.31-5.85,0.48-8.97,0.48h-0.53v22.73c3.23,0.05,6.41,0.23,9.5,0.55V153.66z"/>
		<path class="st1" d="M522.5,150.79c-2.95,0.98-6.12,1.76-9.5,2.32v24.8c3.28,0.48,6.46,1.12,9.5,1.93V150.79z"/>
		<polygon class="st1" points="472.84,176.85 482,176.85 482,154.14 472.84,154.14 472.84,123 442.91,123 442.91,208 472.84,208 		
			"/>
		<path class="st1" d="M541.31,163.77v-0.69c20.39-7.47,34.06-22.36,38.02-40.09h-29.87c-1.39,6.64-4.6,12.56-9.47,17.41v47.07
			c7.36,4.94,12.83,11.71,15.55,20.52h32.04C581.73,182.51,560.15,168.48,541.31,163.77z"/>
		<path class="st1" d="M472.84,106V79.48c4.82-1.03,12.73-2.06,26.49-2.06c26.57,0,45.71,8.21,50.01,28.59h30.89
			c-1.45-15.2-8.32-26.87-18.97-34.78c-14.45-11.7-33.72-16.86-63.65-16.86c-20.99,0-41.63,2.06-54.71,4.82V106H472.84z"/>
		<path class="st1" d="M557.37,225c-1.88,31.06-29.52,41.65-59.41,41.65c-10.67,0-19.27-0.34-25.12-1.38V225h-29.93v62.3
			c9.98,1.38,25.81,2.75,46.45,2.75c37.85,0,64-6.88,80.17-21.68c11.09-10.76,18.76-24.93,19.54-43.37H557.37z"/>
		<rect x="486" y="154.14" class="st1" width="9.5" height="22.71"/>
		<path class="st1" d="M526.5,149.28v31.74c3.38,1.11,6.56,2.46,9.5,4.05v-41.21C533.21,145.96,530.04,147.78,526.5,149.28z"/>
	</g>
</g>
<g id="Orange" class="st2">
	<g class="st3">
		<rect x="374" class="st4" width="374" height="374"/>
	</g>
	<g class="st3">
		<path class="st1" d="M611.37,237.97c0.08,2.41-1.69,4.34-4.5,4.34c-2.49,0-4.25-1.93-4.25-4.34c0-2.49,1.85-4.42,4.42-4.42
			C609.68,233.55,611.37,235.48,611.37,237.97z M603.5,287.75v-38.86h7.07v38.86H603.5z"/>
		<path class="st1" d="M622.29,259.4c0-4.01-0.08-7.31-0.32-10.52h6.26l0.4,6.42h0.16c1.93-3.69,6.42-7.31,12.85-7.31
			c5.38,0,13.73,3.21,13.73,16.54v23.2h-7.07v-22.4c0-6.26-2.33-11.48-8.99-11.48c-4.66,0-8.27,3.29-9.47,7.23
			c-0.32,0.88-0.48,2.09-0.48,3.29v23.36h-7.07V259.4z"/>
		<path class="st1" d="M688.37,287.75l-0.56-4.9h-0.24c-2.17,3.05-6.34,5.78-11.88,5.78c-7.87,0-11.88-5.54-11.88-11.16
			c0-9.39,8.35-14.53,23.36-14.45v-0.8c0-3.21-0.88-8.99-8.83-8.99c-3.61,0-7.39,1.12-10.12,2.89l-1.61-4.66
			c3.21-2.09,7.87-3.45,12.77-3.45c11.88,0,14.77,8.11,14.77,15.9v14.53c0,3.37,0.16,6.66,0.64,9.31H688.37z M687.33,267.91
			c-7.71-0.16-16.46,1.2-16.46,8.75c0,4.58,3.05,6.74,6.66,6.74c5.06,0,8.27-3.21,9.39-6.5c0.24-0.72,0.4-1.53,0.4-2.25V267.91z"/>
		<path class="st1" d="M705.55,261.01c0-4.58-0.08-8.51-0.32-12.12h6.18l0.24,7.63h0.32c1.77-5.22,6.02-8.51,10.76-8.51
			c0.8,0,1.36,0.08,2.01,0.24v6.66c-0.72-0.16-1.45-0.24-2.41-0.24c-4.98,0-8.51,3.77-9.47,9.07c-0.16,0.96-0.32,2.09-0.32,3.29
			v20.72h-6.99V261.01z"/>
		<path class="st1" d="M739.99,237.97c0.08,2.41-1.69,4.34-4.5,4.34c-2.49,0-4.25-1.93-4.25-4.34c0-2.49,1.85-4.42,4.42-4.42
			C738.31,233.55,739.99,235.48,739.99,237.97z M732.13,287.75v-38.86h7.07v38.86H732.13z"/>
	</g>
	<g class="st3">
		<path class="st1" d="M509,153.66c-2.86,0.31-5.85,0.48-8.97,0.48h-0.53v22.73c3.23,0.05,6.41,0.23,9.5,0.55V153.66z"/>
		<path class="st1" d="M522.5,150.79c-2.95,0.98-6.12,1.76-9.5,2.32v24.8c3.28,0.48,6.46,1.12,9.5,1.93V150.79z"/>
		<polygon class="st1" points="472.84,176.85 482,176.85 482,154.14 472.84,154.14 472.84,123 442.91,123 442.91,208 472.84,208 		
			"/>
		<path class="st1" d="M541.31,163.77v-0.69c20.39-7.47,34.06-22.36,38.02-40.09h-29.87c-1.39,6.64-4.6,12.56-9.47,17.41v47.07
			c7.36,4.94,12.83,11.71,15.55,20.52h32.04C581.73,182.51,560.15,168.48,541.31,163.77z"/>
		<path class="st1" d="M472.84,106V79.48c4.82-1.03,12.73-2.06,26.49-2.06c26.57,0,45.71,8.21,50.01,28.59h30.89
			c-1.45-15.2-8.32-26.87-18.97-34.78c-14.45-11.7-33.72-16.86-63.65-16.86c-20.99,0-41.63,2.06-54.71,4.82V106H472.84z"/>
		<path class="st1" d="M557.37,225c-1.88,31.06-29.52,41.65-59.41,41.65c-10.67,0-19.27-0.34-25.12-1.38V225h-29.93v62.3
			c9.98,1.38,25.81,2.75,46.45,2.75c37.85,0,64-6.88,80.17-21.68c11.09-10.76,18.76-24.93,19.54-43.37H557.37z"/>
		<rect x="486" y="154.14" class="st1" width="9.5" height="22.71"/>
		<path class="st1" d="M526.5,149.28v31.74c3.38,1.11,6.56,2.46,9.5,4.05v-41.21C533.21,145.96,530.04,147.78,526.5,149.28z"/>
	</g>
</g>
<g id="Cyano" class="st2">
	<g class="st3">
		<rect x="374" class="st5" width="374" height="374"/>
	</g>
	<g class="st3">
		<path class="st1" d="M611.37,237.97c0.08,2.41-1.69,4.34-4.5,4.34c-2.49,0-4.25-1.93-4.25-4.34c0-2.49,1.85-4.42,4.42-4.42
			C609.68,233.55,611.37,235.48,611.37,237.97z M603.5,287.75v-38.86h7.07v38.86H603.5z"/>
		<path class="st1" d="M622.29,259.4c0-4.01-0.08-7.31-0.32-10.52h6.26l0.4,6.42h0.16c1.93-3.69,6.42-7.31,12.85-7.31
			c5.38,0,13.73,3.21,13.73,16.54v23.2h-7.07v-22.4c0-6.26-2.33-11.48-8.99-11.48c-4.66,0-8.27,3.29-9.47,7.23
			c-0.32,0.88-0.48,2.09-0.48,3.29v23.36h-7.07V259.4z"/>
		<path class="st1" d="M688.37,287.75l-0.56-4.9h-0.24c-2.17,3.05-6.34,5.78-11.88,5.78c-7.87,0-11.88-5.54-11.88-11.16
			c0-9.39,8.35-14.53,23.36-14.45v-0.8c0-3.21-0.88-8.99-8.83-8.99c-3.61,0-7.39,1.12-10.12,2.89l-1.61-4.66
			c3.21-2.09,7.87-3.45,12.77-3.45c11.88,0,14.77,8.11,14.77,15.9v14.53c0,3.37,0.16,6.66,0.64,9.31H688.37z M687.33,267.91
			c-7.71-0.16-16.46,1.2-16.46,8.75c0,4.58,3.05,6.74,6.66,6.74c5.06,0,8.27-3.21,9.39-6.5c0.24-0.72,0.4-1.53,0.4-2.25V267.91z"/>
		<path class="st1" d="M705.55,261.01c0-4.58-0.08-8.51-0.32-12.12h6.18l0.24,7.63h0.32c1.77-5.22,6.02-8.51,10.76-8.51
			c0.8,0,1.36,0.08,2.01,0.24v6.66c-0.72-0.16-1.45-0.24-2.41-0.24c-4.98,0-8.51,3.77-9.47,9.07c-0.16,0.96-0.32,2.09-0.32,3.29
			v20.72h-6.99V261.01z"/>
		<path class="st1" d="M739.99,237.97c0.08,2.41-1.69,4.34-4.5,4.34c-2.49,0-4.25-1.93-4.25-4.34c0-2.49,1.85-4.42,4.42-4.42
			C738.31,233.55,739.99,235.48,739.99,237.97z M732.13,287.75v-38.86h7.07v38.86H732.13z"/>
	</g>
	<g class="st3">
		<path class="st1" d="M509,153.66c-2.86,0.31-5.85,0.48-8.97,0.48h-0.53v22.73c3.23,0.05,6.41,0.23,9.5,0.55V153.66z"/>
		<path class="st1" d="M522.5,150.79c-2.95,0.98-6.12,1.76-9.5,2.32v24.8c3.28,0.48,6.46,1.12,9.5,1.93V150.79z"/>
		<polygon class="st1" points="472.84,176.85 482,176.85 482,154.14 472.84,154.14 472.84,123 442.91,123 442.91,208 472.84,208 		
			"/>
		<path class="st1" d="M541.31,163.77v-0.69c20.39-7.47,34.06-22.36,38.02-40.09h-29.87c-1.39,6.64-4.6,12.56-9.47,17.41v47.07
			c7.36,4.94,12.83,11.71,15.55,20.52h32.04C581.73,182.51,560.15,168.48,541.31,163.77z"/>
		<path class="st1" d="M472.84,106V79.48c4.82-1.03,12.73-2.06,26.49-2.06c26.57,0,45.71,8.21,50.01,28.59h30.89
			c-1.45-15.2-8.32-26.87-18.97-34.78c-14.45-11.7-33.72-16.86-63.65-16.86c-20.99,0-41.63,2.06-54.71,4.82V106H472.84z"/>
		<path class="st1" d="M557.37,225c-1.88,31.06-29.52,41.65-59.41,41.65c-10.67,0-19.27-0.34-25.12-1.38V225h-29.93v62.3
			c9.98,1.38,25.81,2.75,46.45,2.75c37.85,0,64-6.88,80.17-21.68c11.09-10.76,18.76-24.93,19.54-43.37H557.37z"/>
		<rect x="486" y="154.14" class="st1" width="9.5" height="22.71"/>
		<path class="st1" d="M526.5,149.28v31.74c3.38,1.11,6.56,2.46,9.5,4.05v-41.21C533.21,145.96,530.04,147.78,526.5,149.28z"/>
	</g>
</g>
<g id="Brown">
	<g>
		<rect x="374" class="st6" width="374" height="374"/>
	</g>
	<g>
		<path class="st1" d="M611.37,237.97c0.08,2.41-1.69,4.34-4.5,4.34c-2.49,0-4.25-1.93-4.25-4.34c0-2.49,1.85-4.42,4.42-4.42
			C609.68,233.55,611.37,235.48,611.37,237.97z M603.5,287.75v-38.86h7.07v38.86H603.5z"/>
		<path class="st1" d="M622.29,259.4c0-4.01-0.08-7.31-0.32-10.52h6.26l0.4,6.42h0.16c1.93-3.69,6.42-7.31,12.85-7.31
			c5.38,0,13.73,3.21,13.73,16.54v23.2h-7.07v-22.4c0-6.26-2.33-11.48-8.99-11.48c-4.66,0-8.27,3.29-9.47,7.23
			c-0.32,0.88-0.48,2.09-0.48,3.29v23.36h-7.07V259.4z"/>
		<path class="st1" d="M688.37,287.75l-0.56-4.9h-0.24c-2.17,3.05-6.34,5.78-11.88,5.78c-7.87,0-11.88-5.54-11.88-11.16
			c0-9.39,8.35-14.53,23.36-14.45v-0.8c0-3.21-0.88-8.99-8.83-8.99c-3.61,0-7.39,1.12-10.12,2.89l-1.61-4.66
			c3.21-2.09,7.87-3.45,12.77-3.45c11.88,0,14.77,8.11,14.77,15.9v14.53c0,3.37,0.16,6.66,0.64,9.31H688.37z M687.33,267.91
			c-7.71-0.16-16.46,1.2-16.46,8.75c0,4.58,3.05,6.74,6.66,6.74c5.06,0,8.27-3.21,9.39-6.5c0.24-0.72,0.4-1.53,0.4-2.25V267.91z"/>
		<path class="st1" d="M705.55,261.01c0-4.58-0.08-8.51-0.32-12.12h6.18l0.24,7.63h0.32c1.77-5.22,6.02-8.51,10.76-8.51
			c0.8,0,1.36,0.08,2.01,0.24v6.66c-0.72-0.16-1.45-0.24-2.41-0.24c-4.98,0-8.51,3.77-9.47,9.07c-0.16,0.96-0.32,2.09-0.32,3.29
			v20.72h-6.99V261.01z"/>
		<path class="st1" d="M739.99,237.97c0.08,2.41-1.69,4.34-4.5,4.34c-2.49,0-4.25-1.93-4.25-4.34c0-2.49,1.85-4.42,4.42-4.42
			C738.31,233.55,739.99,235.48,739.99,237.97z M732.13,287.75v-38.86h7.07v38.86H732.13z"/>
	</g>
	<g>
		<path class="st1" d="M509,153.66c-2.86,0.31-5.85,0.48-8.97,0.48h-0.53v22.73c3.23,0.05,6.41,0.23,9.5,0.55V153.66z"/>
		<path class="st1" d="M522.5,150.79c-2.95,0.98-6.12,1.76-9.5,2.32v24.8c3.28,0.48,6.46,1.12,9.5,1.93V150.79z"/>
		<polygon class="st1" points="472.84,176.85 482,176.85 482,154.14 472.84,154.14 472.84,123 442.91,123 442.91,208 472.84,208 		
			"/>
		<path class="st1" d="M541.31,163.77v-0.69c20.39-7.47,34.06-22.36,38.02-40.09h-29.87c-1.39,6.64-4.6,12.56-9.47,17.41v47.07
			c7.36,4.94,12.83,11.71,15.55,20.52h32.04C581.73,182.51,560.15,168.48,541.31,163.77z"/>
		<path class="st1" d="M472.84,106V79.48c4.82-1.03,12.73-2.06,26.49-2.06c26.57,0,45.71,8.21,50.01,28.59h30.89
			c-1.45-15.2-8.32-26.87-18.97-34.78c-14.45-11.7-33.72-16.86-63.65-16.86c-20.99,0-41.63,2.06-54.71,4.82V106H472.84z"/>
		<path class="st1" d="M557.37,225c-1.88,31.06-29.52,41.65-59.41,41.65c-10.67,0-19.27-0.34-25.12-1.38V225h-29.93v62.3
			c9.98,1.38,25.81,2.75,46.45,2.75c37.85,0,64-6.88,80.17-21.68c11.09-10.76,18.76-24.93,19.54-43.37H557.37z"/>
		<rect x="486" y="154.14" class="st1" width="9.5" height="22.71"/>
		<path class="st1" d="M526.5,149.28v31.74c3.38,1.11,6.56,2.46,9.5,4.05v-41.21C533.21,145.96,530.04,147.78,526.5,149.28z"/>
	</g>
</g>
</svg>
